<?xml version="1.0" standalone="no"?>
<!DOCTYPE svg PUBLIC "-//W3C//DTD SVG 20010904//EN"
 "http://www.w3.org/TR/2001/REC-SVG-20010904/DTD/svg10.dtd">
<svg version="1.0" xmlns="http://www.w3.org/2000/svg"
 width="1024.000000pt" height="1024.000000pt" viewBox="0 0 1024.000000 1024.000000"
 preserveAspectRatio="xMidYMid meet">

<g transform="translate(0.000000,1024.000000) scale(0.100000,-0.100000)"
fill="#000000" stroke="none">
<path d="M5215 8269 c-312 -215 -832 -357 -1410 -385 -295 -14 -498 43 -589
166 -17 22 -35 40 -42 40 -7 0 -96 -87 -199 -192 l-186 -193 4 -1450 c4 -1599
1 -1521 68 -1828 129 -587 371 -1073 760 -1522 109 -126 374 -386 499 -490
298 -247 592 -436 998 -639 l172 -86 103 51 c536 269 893 505 1237 821 438
401 720 790 918 1264 91 218 164 461 202 674 56 321 53 219 57 1769 l4 1433
-109 112 c-60 61 -150 151 -199 199 l-90 88 -28 -41 c-104 -150 -370 -207
-776 -165 -295 30 -561 85 -788 161 -129 44 -408 178 -474 228 -26 20 -51 35
-55 35 -4 -1 -38 -23 -77 -50z m-185 -1194 l0 -345 120 0 120 0 0 -65 0 -65
-195 0 -195 0 0 410 0 410 75 0 75 0 0 -345z m740 -65 l0 -410 -75 0 -75 0 0
268 c0 147 3 331 7 410 l6 142 69 0 68 0 0 -410z m-1363 373 c54 -18 107 -80
122 -138 17 -69 14 -450 -4 -512 -58 -196 -353 -222 -436 -38 -16 35 -19 70
-19 286 l0 247 28 53 c32 62 91 104 162 118 52 9 88 6 147 -16z m2030 1 c51
-19 128 -100 137 -145 3 -17 6 -49 6 -70 l0 -39 -65 0 -65 0 0 34 c0 91 -126
142 -165 66 -20 -39 -22 -441 -2 -480 19 -38 60 -54 102 -40 43 14 55 35 55
96 l0 47 53 -7 c28 -3 60 -6 70 -6 26 0 24 -107 -3 -160 -75 -148 -312 -145
-405 4 l-30 49 0 261 c0 260 0 261 25 305 31 55 64 80 127 96 55 14 100 11
160 -11z m688 -59 c143 -17 204 -24 223 -24 8 -1 12 -21 12 -67 l0 -67 -72 7
c-40 3 -101 9 -135 13 l-63 6 0 -96 0 -95 53 -7 c116 -14 108 -8 105 -83 -2
-38 -7 -66 -13 -65 -5 0 -40 4 -77 8 l-68 7 0 -106 c0 -123 -16 -110 155 -129
l110 -12 3 -68 c2 -55 0 -67 -12 -67 -27 0 -380 41 -393 45 -10 3 -13 94 -13
410 l0 405 28 0 c15 0 86 -7 157 -15z m-3502 -6 c51 -14 104 -63 118 -108 6
-21 9 -85 7 -147 -3 -103 -5 -114 -33 -159 -36 -58 -91 -90 -180 -105 -118
-20 -105 -2 -105 -155 0 -73 -3 -136 -7 -138 -5 -3 -38 -8 -76 -12 l-67 -7 2
403 3 404 120 16 c150 21 171 21 218 8z m3521 -1169 c62 -20 145 -72 153 -97
3 -7 -23 -20 -66 -33 l-71 -21 -37 26 c-37 24 -73 33 -73 17 0 -4 7 -17 15
-29 14 -19 13 -21 -17 -27 -59 -12 -78 -6 -122 34 -43 39 -44 40 -120 40 l-77
0 16 -30 16 -30 -54 0 c-46 0 -57 4 -82 30 -26 28 -34 30 -97 30 -65 0 -68 -1
-58 -19 16 -31 12 -41 -17 -41 -17 0 -39 12 -58 30 -31 30 -34 31 -113 28
l-81 -3 74 -80 c42 -45 72 -87 70 -95 -2 -8 -7 -32 -11 -52 -3 -21 -9 -38 -13
-38 -4 0 -67 61 -141 135 l-133 135 -85 0 -85 0 23 -27 c14 -16 102 -107 196
-203 l172 -175 -19 -44 -20 -45 -112 110 c-62 60 -176 172 -254 247 l-142 137
-88 0 -88 -1 298 -295 c163 -162 297 -298 297 -302 0 -4 -13 -21 -28 -39 l-27
-32 -135 124 c-74 69 -136 133 -138 143 -2 10 -30 33 -65 52 -64 35 -98 67
-260 243 l-99 107 -80 0 c-75 0 -79 -1 -73 -20 6 -18 2 -20 -48 -20 -41 0 -58
5 -72 20 -14 16 -31 20 -78 20 -47 0 -57 -3 -49 -13 8 -10 -1 -17 -40 -31
l-50 -18 -33 32 c-31 30 -33 31 -121 28 l-88 -3 65 -70 66 -70 -24 -38 -24
-38 -92 87 c-51 48 -100 98 -110 111 -17 21 -26 23 -108 23 -49 0 -89 -3 -89
-8 0 -4 45 -52 101 -107 55 -55 131 -134 169 -176 66 -75 71 -83 118 -229 2
-8 -116 105 -264 253 l-269 267 -163 0 c-89 0 -162 -2 -162 -4 0 -2 7 -20 15
-40 l15 -36 -75 0 c-74 0 -76 1 -119 40 -42 39 -45 40 -115 40 -39 0 -71 -3
-71 -7 0 -5 9 -23 20 -40 l20 -33 -28 0 c-40 0 -147 27 -203 51 -48 21 -49 22
-32 41 27 30 100 70 152 84 36 10 451 13 1837 13 1773 1 1793 1 1858 -19z
m-4056 -155 c101 -94 265 -163 433 -185 46 -5 194 -10 329 -10 l245 0 29 -85
c59 -173 168 -334 343 -507 98 -98 305 -264 361 -291 27 -13 27 -9 -2 -109
-49 -171 -58 -388 -22 -552 9 -38 13 -72 10 -75 -10 -11 -172 -31 -294 -37
-97 -5 -140 -3 -193 10 -95 22 -247 103 -247 130 0 8 42 16 123 25 163 16 374
50 415 67 36 15 38 21 19 67 -26 60 -28 60 -208 31 -213 -34 -455 -39 -569
-11 -97 25 -220 85 -293 144 l-59 48 548 3 c384 1 551 5 561 13 32 27 -5 118
-49 119 -7 1 -213 2 -458 4 -425 3 -448 4 -520 25 -267 79 -419 227 -494 480
l-16 54 53 -50 c155 -146 340 -235 582 -279 109 -19 491 -32 507 -16 14 14
-24 96 -54 115 -17 11 -69 16 -198 20 -419 13 -674 130 -846 389 -96 144 -133
262 -141 453 l-5 130 33 -40 c18 -22 53 -58 77 -80z m4529 -12 c-6 -152 -28
-239 -93 -363 -100 -195 -274 -347 -474 -415 -114 -39 -230 -56 -423 -62 -158
-5 -181 -8 -204 -26 -33 -27 -67 -99 -50 -109 33 -21 449 1 589 32 174 38 348
126 469 238 38 35 69 60 69 55 0 -20 -32 -109 -59 -166 -86 -177 -239 -292
-471 -353 -56 -15 -124 -18 -514 -19 l-449 -1 -23 -28 c-13 -15 -24 -38 -24
-51 0 -25 23 -55 43 -55 7 0 251 -1 542 -1 l530 0 -40 -35 c-103 -92 -250
-154 -411 -175 -121 -15 -245 -8 -454 26 -157 26 -162 26 -182 8 -18 -16 -48
-64 -48 -77 0 -29 141 -60 417 -93 166 -19 168 -21 89 -70 -97 -62 -270 -106
-383 -97 -147 10 -278 25 -285 32 -4 4 2 57 12 117 31 175 25 323 -20 497 -11
43 -20 84 -20 91 0 8 44 45 97 82 303 214 523 479 623 755 l28 75 298 6 c259
6 310 9 382 28 157 40 297 121 392 228 25 28 47 51 49 52 2 1 1 -56 -2 -126z
m-2417 -153 c106 -10 108 -10 205 -85 44 -34 112 -81 151 -104 l71 -42 -8 -57
c-18 -134 -39 -360 -39 -423 0 -45 12 -120 35 -214 48 -198 59 -286 52 -440
-11 -257 -84 -479 -218 -663 -51 -69 -146 -172 -159 -172 -10 0 -89 87 -146
162 -89 115 -157 270 -201 455 -14 60 -18 119 -18 258 0 228 13 290 110 535
99 248 128 346 129 440 1 95 -18 130 -88 165 -68 34 -135 34 -193 0 l-43 -26
0 37 c0 44 30 111 64 143 38 36 94 52 156 45 30 -3 93 -9 140 -14z m-402 -573
c62 -65 112 -124 112 -131 0 -23 -22 -76 -31 -76 -5 0 -9 4 -9 9 0 5 -71 73
-157 152 -87 79 -186 172 -220 206 -82 83 -156 196 -183 280 -13 37 -25 74
-28 80 -4 14 329 -323 516 -520z m212 233 c17 -9 17 -13 -5 -97 -33 -123 -37
-134 -45 -131 -17 7 -130 137 -130 150 0 32 87 87 138 88 13 0 32 -4 42 -10z
m962 -169 l20 -26 -38 -33 -38 -33 -78 78 -79 78 7 50 c3 28 8 53 11 58 5 8
162 -131 195 -172z m-188 -150 l27 -29 -30 -21 -31 -22 0 50 c0 28 1 51 3 51
2 0 16 -13 31 -29z m1726 -367 c-56 -565 -276 -1104 -642 -1575 -374 -481
-860 -869 -1450 -1160 l-119 -58 -57 25 c-31 14 -118 57 -191 95 -378 196
-675 414 -976 714 -339 338 -532 600 -701 950 -118 245 -196 477 -248 741 -26
128 -46 278 -46 342 l0 34 52 -57 c28 -31 70 -69 94 -86 33 -23 46 -39 55 -72
13 -50 49 -114 78 -141 12 -11 21 -23 21 -28 0 -4 -18 9 -40 31 -22 21 -49 41
-60 44 -17 4 -20 0 -20 -29 0 -19 7 -51 16 -72 10 -25 190 -212 571 -595 l557
-558 -32 -32 -32 -31 -457 455 c-441 438 -568 558 -579 547 -2 -3 9 -50 27
-104 l31 -98 121 -126 c67 -69 277 -282 468 -475 190 -192 382 -395 426 -450
44 -55 125 -146 179 -203 l98 -104 18 24 c10 13 18 29 18 36 0 6 4 12 8 12 20
0 32 -29 32 -80 0 -70 16 -93 84 -125 60 -28 156 -123 137 -134 -17 -11 1 -52
53 -120 24 -31 46 -64 49 -73 3 -9 27 -29 54 -44 26 -15 76 -44 111 -65 113
-69 127 -48 34 53 -37 40 -87 96 -110 125 -43 52 -44 52 -105 55 l-62 3 0 72
0 71 50 -36 c28 -20 66 -46 85 -59 19 -13 40 -38 48 -56 16 -40 61 -87 81 -87
29 -1 98 -38 139 -74 l40 -37 59 28 c32 15 60 29 62 31 3 1 -26 34 -64 72
l-69 70 54 55 c30 30 57 55 60 55 3 0 12 -17 22 -38 12 -27 17 -32 18 -17 2
22 94 94 180 141 l51 28 62 -62 c34 -34 66 -62 71 -62 5 0 30 17 55 37 25 20
48 38 50 40 3 2 -34 43 -82 91 -48 48 -87 95 -87 104 0 15 40 48 57 48 4 0 51
-41 103 -90 52 -49 97 -90 100 -90 3 0 27 19 53 42 l49 41 -89 89 -88 90 25
16 c13 9 31 25 39 35 9 9 19 17 24 17 4 0 46 -39 92 -87 l84 -88 47 47 48 47
-87 89 c-80 81 -101 112 -78 112 5 0 15 16 21 36 l12 36 104 -103 104 -104 40
41 41 40 -133 130 c-73 71 -187 181 -253 244 -166 159 -206 210 -244 315 -17
47 -31 88 -31 91 0 2 57 -53 128 -123 70 -71 232 -231 360 -358 l232 -229 40
39 c22 21 40 44 40 50 0 7 -153 164 -341 351 -347 346 -486 491 -477 500 10
10 143 -17 151 -31 20 -36 114 -132 357 -365 146 -140 290 -280 321 -311 l56
-57 39 50 39 51 -304 298 c-331 325 -311 297 -229 314 21 4 90 -58 328 -290
185 -181 252 -245 255 -245 2 0 17 23 35 50 l32 50 -130 138 c-72 75 -180 186
-241 246 l-110 110 37 21 37 21 225 -217 c124 -119 230 -218 235 -220 6 -1 23
22 39 51 l29 52 -219 219 c-120 121 -214 219 -208 219 6 0 24 12 39 26 l28 26
203 -203 203 -203 25 58 c14 32 26 61 26 65 0 3 -70 76 -155 161 -85 85 -155
160 -155 166 0 6 20 15 44 21 l45 10 130 -124 c146 -139 131 -136 162 -34 l13
42 -100 100 -99 100 34 31 34 30 82 -82 81 -81 17 60 c9 34 17 66 17 73 0 7
-27 40 -61 74 l-60 61 18 31 c10 18 24 32 32 32 8 0 34 -16 58 -36 24 -20 46
-35 47 -33 2 2 9 34 15 71 10 59 9 71 -5 93 -16 24 -15 25 62 109 43 47 80 83
82 82 1 -2 -2 -53 -8 -112z m-3781 -509 l94 -30 138 -140 c75 -77 239 -244
363 -371 124 -127 226 -235 226 -240 -1 -13 -48 -69 -54 -64 -2 3 -203 202
-445 443 -243 241 -435 437 -428 435 6 -2 54 -17 106 -33z m1000 -317 c-1
-119 -4 -120 -88 -33 -41 42 -72 78 -69 80 3 3 32 9 64 14 102 15 94 20 93
-61z m-155 -158 l90 -89 -19 -40 c-10 -23 -21 -41 -24 -41 -8 0 -261 253 -261
261 0 4 28 5 63 2 l62 -5 89 -88z m1240 -248 c60 -120 118 -209 196 -301 l63
-75 -79 -75 c-78 -75 -202 -158 -215 -143 -6 7 -190 651 -189 665 0 4 25 55
56 113 l57 106 32 -99 c18 -55 54 -141 79 -191z m-892 215 c11 -23 34 -61 50
-85 l30 -43 -17 -72 c-10 -40 -51 -187 -92 -327 -41 -140 -77 -263 -80 -272
-3 -10 -10 -18 -17 -18 -34 0 -276 195 -276 222 0 6 22 35 50 64 109 120 226
324 286 501 16 45 32 79 36 77 5 -3 18 -24 30 -47z m308 -765 l0 -383 -32 17
c-60 31 -228 169 -254 209 -14 21 -8 50 73 349 l87 325 63 -67 62 -67 1 -383z
m272 461 c9 -32 45 -171 82 -309 36 -138 66 -262 66 -276 0 -32 -106 -135
-211 -206 l-77 -51 -4 377 -4 377 58 64 c32 35 58 68 58 72 0 5 4 9 9 9 5 0
15 -26 23 -57z"/>
<path d="M4264 7256 c-17 -8 -34 -21 -38 -31 -9 -23 -7 -477 2 -492 9 -14 56
-33 83 -33 11 0 34 13 50 29 l29 29 0 221 c0 241 -4 264 -53 281 -37 12 -35
12 -73 -4z"/>
<path d="M3473 7183 l-43 -4 0 -125 0 -124 40 0 c52 0 103 21 124 51 25 36 22
163 -4 189 -20 20 -28 21 -117 13z"/>
<path d="M3440 5534 c0 -28 40 -84 73 -101 36 -19 282 -32 297 -17 14 14 -6
83 -31 110 -22 23 -27 24 -181 24 -139 0 -158 -2 -158 -16z"/>
<path d="M6823 5535 c-25 -18 -58 -98 -48 -116 6 -9 43 -10 141 -7 105 4 139
9 165 24 35 21 64 56 74 92 l6 22 -158 0 c-125 0 -163 -3 -180 -15z"/>
<path d="M5072 5773 c4 -24 128 -115 182 -134 25 -9 46 -14 46 -12 0 3 -20 34
-45 69 -40 56 -52 65 -97 79 -68 20 -90 19 -86 -2z"/>
<path d="M3515 3755 c40 -93 110 -216 161 -285 66 -90 855 -890 943 -958 57
-42 82 -55 104 -54 17 2 37 -4 46 -12 9 -8 30 -17 46 -21 17 -4 25 -3 20 2 -6
4 -33 37 -60 73 -65 85 -428 460 -905 935 -376 374 -381 379 -355 320z"/>
<path d="M5670 2451 c0 -22 5 -43 10 -46 6 -4 10 10 10 34 0 22 -4 43 -10 46
-6 4 -10 -10 -10 -34z"/>
<path d="M5825 2430 c-3 -6 1 -7 9 -4 18 7 21 14 7 14 -6 0 -13 -4 -16 -10z"/>
<path d="M5622 2354 l36 -36 30 18 31 18 -30 18 c-16 10 -46 18 -67 18 l-37 0
37 -36z"/>
</g>
</svg>
